<svg id="_2" data-name="2" xmlns="http://www.w3.org/2000/svg" width="150" viewBox="0 0 636.17 504.003">
  <path id="Caminho_10" data-name="Caminho 10" d="M372.69,504c137.75.659,263.48-112.341,263.48-249.81C636.17,103.86,510.44-.05,372.69,0H254.14C114.74-.05,0,103.891,0,254.19,0,391.689,114.74,504.66,254.14,504Z" fill="#0079be"></path>
  <path id="Caminho_11" data-name="Caminho 11" d="M254.7,20.83c-127.38.04-230.6,103.29-230.63,230.721C24.1,378.96,127.32,482.2,254.7,482.24c127.41-.04,230.651-103.28,230.669-230.689C485.351,124.12,382.111,20.87,254.7,20.83ZM108.511,251.551h0a146.464,146.464,0,0,1,93.85-136.471V387.99A146.4,146.4,0,0,1,108.511,251.551Zm198.51,136.5h0V115.071a146.142,146.142,0,0,1,0,272.979Z" fill="#fff"></path>
  <path id="Caminho_49" data-name="Caminho 49" d="M372.69,504c137.75.659,263.48-112.341,263.48-249.81C636.17,103.86,510.44-.05,372.69,0H254.14C114.74-.05,0,103.891,0,254.19,0,391.689,114.74,504.66,254.14,504Z" fill="#0079be"></path>
  <path id="Caminho_50" data-name="Caminho 50" d="M254.7,20.83c-127.38.04-230.6,103.29-230.63,230.721C24.1,378.96,127.32,482.2,254.7,482.24c127.41-.04,230.651-103.28,230.669-230.689C485.351,124.12,382.111,20.87,254.7,20.83ZM108.511,251.551h0a146.464,146.464,0,0,1,93.85-136.471V387.99A146.4,146.4,0,0,1,108.511,251.551Zm198.51,136.5h0V115.071a146.142,146.142,0,0,1,0,272.979Z" fill="#fff"></path>
</svg>
