<svg xmlns="http://www.w3.org/2000/svg" width="60" height="40" viewBox="0 0 60 40">
  <path d="M60,35a5.015,5.015,0,0,1-5,5H5a5.015,5.015,0,0,1-5-5V5A5.015,5.015,0,0,1,5,0H55a5.015,5.015,0,0,1,5,5Z" fill="#152884"></path>
  <path d="M0,23.466V35a5.015,5.015,0,0,0,5,5H55a5.015,5.015,0,0,0,5-5V24.834C49.068,21.19,29.814,15.885,0,23.466Z" fill="#ffed00"></path>
  <path d="M0,19.628v5.839c29.814-7.58,49.068-2.275,60,1.367v-6.1C52.381,17.91,29.491,11.584,0,19.628Z" fill="#eb212e"></path>
  <path d="M18.975,16.157A10.971,10.971,0,0,1,29.867,8.475c5.961.04,9.937,3.445,11.01,7.9A104.429,104.429,0,0,0,18.975,16.157Z" fill="#ffed00"></path>
  <path d="M45.439,31.176a15.748,15.748,0,0,1-2.118.282,7.973,7.973,0,0,0-1.131.147,1.173,1.173,0,0,0-.512.233.467.467,0,0,0-.182.352c0,.2.133.363.393.5a2.638,2.638,0,0,0,1.148.2,4.333,4.333,0,0,0,1.334-.186,1.825,1.825,0,0,0,.859-.514,1.132,1.132,0,0,0,.21-.743v-.265Zm.109,1.657a6.28,6.28,0,0,1-1.4.5,6.756,6.756,0,0,1-1.432.144,4.286,4.286,0,0,1-1.939-.352,1.032,1.032,0,0,1-.677-.9.826.826,0,0,1,.256-.589,1.826,1.826,0,0,1,.668-.426,4.582,4.582,0,0,1,.931-.233c.254-.037.638-.077,1.15-.112a19.752,19.752,0,0,0,2.314-.256v-.193a.655.655,0,0,0-.368-.638,3.345,3.345,0,0,0-1.476-.251,3.713,3.713,0,0,0-1.352.184,1.212,1.212,0,0,0-.645.649l-1.266-.1a1.594,1.594,0,0,1,.568-.752,2.98,2.98,0,0,1,1.145-.442,8.721,8.721,0,0,1,1.737-.154,7.8,7.8,0,0,1,1.592.133,2.611,2.611,0,0,1,.9.333,1.082,1.082,0,0,1,.4.5,2.5,2.5,0,0,1,.063.684v.989a5.907,5.907,0,0,0,.084,1.308,1.3,1.3,0,0,0,.328.526H45.783a1.11,1.11,0,0,1-.258-.54Zm-11.05.54V28.994h1.164v.663a2.475,2.475,0,0,1,.826-.615,2.267,2.267,0,0,1,.831-.149,3.989,3.989,0,0,1,1.334.233l-.447.7a2.9,2.9,0,0,0-.95-.163,1.917,1.917,0,0,0-.766.147.962.962,0,0,0-.482.407,1.756,1.756,0,0,0-.216.866v2.293Zm-4.306,0v-.642a3.693,3.693,0,0,1-2.43.743,5.176,5.176,0,0,1-1.264-.147,2.374,2.374,0,0,1-.871-.372,1.186,1.186,0,0,1-.4-.549,2.254,2.254,0,0,1-.079-.7V29h1.3v2.428a2.555,2.555,0,0,0,.079.784.915.915,0,0,0,.519.466,2.55,2.55,0,0,0,.982.165,3.418,3.418,0,0,0,1.094-.17,1.394,1.394,0,0,0,.724-.466,1.444,1.444,0,0,0,.214-.857V29h1.3v4.379H30.192ZM16.258,30.889H19.84l-1.1-1.674a12.387,12.387,0,0,1-.747-1.255,5.486,5.486,0,0,1-.57,1.164L16.256,30.9Zm-3.047,2.484,4.057-6.052h1.494l4.323,6.052H21.5l-1.231-1.832H15.848l-1.164,1.832Z" fill="#152884"></path>
  <path d="M55,0H5A5.015,5.015,0,0,0,0,5V35a5.015,5.015,0,0,0,5,5H55a5.015,5.015,0,0,0,5-5V5A5.015,5.015,0,0,0,55,0Zm0,1a4,4,0,0,1,4,4V35a4,4,0,0,1-4,4H5a4,4,0,0,1-4-4V5A4,4,0,0,1,5,1Z" fill="#fff" opacity="0.25"></path>
</svg>
