<svg xmlns="http://www.w3.org/2000/svg" width="60" height="40" viewBox="0 0 60 40">
  <path d="M60,35a5.015,5.015,0,0,1-5,5H5a5.015,5.015,0,0,1-5-5V5A5.015,5.015,0,0,1,5,0H55a5.015,5.015,0,0,1,5,5Z" fill="#ffed00"></path>
  <path d="M19.529,23.647,30,30.625l10.474-6.979-4.4-2.936-5,3.33,2.439,1.63L30,28.017l-6.554-4.372,10.943-7.3-1.957-1.306Z" fill="#225198"></path>
  <path d="M36.557,12.3,38.514,13.6l2.169-1.448V9.549ZM25.608,23.647l1.957,1.306L40.47,16.345,30,9.375,19.529,16.346l4.388,2.93,5-3.336-2.439-1.609,3.515-2.349,6.561,4.371Zm-6.29,4.2V30.45L23.443,27.7,21.486,26.4Z" fill="#225198"></path>
</svg>
