<!--?xml version="1.0" encoding="utf-8"?-->
<!-- Generator: Adobe Illustrator 22.0.1, SVG Export Plug-In . SVG Version: 6.00 Build 0)  -->
<svg version="1.1" id="Layer_1" xmlns="http://www.w3.org/2000/svg" xmlns:xlink="http://www.w3.org/1999/xlink" x="0px" y="0px" viewBox="0 0 43.1 9.8" style="enable-background:new 0 0 43.1 9.8;" xml:space="preserve" width="43.1" height="9.8">
<style type="text/css">
.st0{fill:#116BB6;}
.st1{fill:#F29A25;}
</style>
<g>
  <path class="st0" d="M13.2,3.2L12.1,6h1.5L13.2,3.2L13.2,3.2z M7.3,9.6l4.6-9.4h3.5l1.9,9.4h-3L14,8.4h-3l-0.7,1.3H7.3z M18.7,9.6
  L20,0.2h3.1l-1.3,9.4H18.7z M39.1,3.2L37.9,6h1.5L39.1,3.2L39.1,3.2z M33.1,9.6l4.6-9.4h3.5l1.9,9.4h-3l-0.2-1.3h-3l-0.7,1.3H33.1z
  M26.4,5.2h3.8l2.6,4.4H29L26.4,5.2L26.4,5.2z"></path>
  <path class="st1" d="M26.8,4.5h4l3.4-4.3h-4L26.8,4.5L26.8,4.5z M22.8,9.6h4l3.4-4.4h-4L22.8,9.6z"></path>
  <path class="st0" d="M24.2,0.2h3.7l2.5,4.4h-3.7L24.2,0.2L24.2,0.2z M7.4,0.5L7.1,3.3c-1.1-1.6-3.7-0.5-4,1.5
  c-0.3,2.5,2.3,3,3.6,1.6L6.5,9.1C6,9.3,5.6,9.5,5.2,9.6C4.9,9.7,4.5,9.8,4.1,9.8c-0.5,0-0.9,0-1.3-0.2C2.3,9.5,2,9.3,1.6,9.1
  C1,8.6,0.6,8.1,0.3,7.4C0,6.7-0.1,5.9,0,5C0.1,4.3,0.3,3.6,0.6,3c0.3-0.6,0.7-1.1,1.2-1.6c0.5-0.5,1-0.8,1.5-1C3.8,0.1,4.5,0,5.1,0
  c0.4,0,0.8,0,1.1,0.1C6.6,0.2,7,0.3,7.4,0.5L7.4,0.5z"></path>
</g>
</svg>
