<svg xmlns="http://www.w3.org/2000/svg" width="50" height="13.55" viewBox="0 0 30.776 8.212">
  <g transform="translate(224.52 -374.351)">
    <g transform="translate(-237 372)">
      <path d="M39.352,6.749H36.959a.333.333,0,0,0-.329.281l-.968,6.137a.2.2,0,0,0,.2.23H37a.333.333,0,0,0,.329-.281l.261-1.655a.332.332,0,0,1,.328-.281h.758A2.458,2.458,0,0,0,41.4,8.905a1.843,1.843,0,0,0-.3-1.545A2.22,2.22,0,0,0,39.352,6.749Zm.276,2.241c-.131.859-.787.859-1.422.859h-.361l.253-1.6a.2.2,0,0,1,.2-.168h.166c.432,0,.84,0,1.051.246a.8.8,0,0,1,.113.663Z" transform="translate(-23.18 -4.387)" fill="#253b80"></path>
      <path d="M56.585,12.875H55.439a.2.2,0,0,0-.2.168l-.051.321-.08-.116a1.631,1.631,0,0,0-1.354-.48,2.636,2.636,0,0,0-2.559,2.3,2.163,2.163,0,0,0,.427,1.761,1.793,1.793,0,0,0,1.444.583,2.193,2.193,0,0,0,1.586-.656l-.051.318a.2.2,0,0,0,.2.231h1.032a.333.333,0,0,0,.329-.281l.619-3.923a.2.2,0,0,0-.2-.226Zm-1.6,2.231A1.277,1.277,0,0,1,53.694,16.2a.888.888,0,0,1-.949-1.114,1.283,1.283,0,0,1,1.284-1.1.967.967,0,0,1,.764.312.992.992,0,0,1,.194.807Z" transform="translate(-33.259 -8.299)" fill="#253b80"></path>
      <path d="M74.177,13.075H73.026a.334.334,0,0,0-.275.146l-1.588,2.34-.673-2.248a.334.334,0,0,0-.319-.237H69.037a.2.2,0,0,0-.189.264l1.269,3.723-1.193,1.684a.2.2,0,0,0,.163.315h1.15a.332.332,0,0,0,.273-.143l3.831-5.529a.2.2,0,0,0-.164-.315Z" transform="translate(-44.747 -8.499)" fill="#253b80"></path>
      <path d="M88.133,6.749H85.74a.332.332,0,0,0-.328.281l-.968,6.137a.2.2,0,0,0,.2.23h1.228a.233.233,0,0,0,.23-.2l.275-1.74a.332.332,0,0,1,.328-.281h.757A2.458,2.458,0,0,0,90.186,8.9a1.842,1.842,0,0,0-.306-1.545,2.218,2.218,0,0,0-1.747-.607Zm.276,2.241c-.131.859-.787.859-1.422.859h-.361l.254-1.6a.2.2,0,0,1,.2-.168h.166c.432,0,.84,0,1.051.246a.8.8,0,0,1,.112.663Z" transform="translate(-54.89 -4.387)" fill="#179bd7"></path>
      <path d="M105.368,12.875h-1.145a.2.2,0,0,0-.2.168l-.051.321-.08-.116a1.631,1.631,0,0,0-1.353-.48,2.635,2.635,0,0,0-2.559,2.3,2.164,2.164,0,0,0,.427,1.761,1.794,1.794,0,0,0,1.444.583,2.193,2.193,0,0,0,1.586-.656l-.051.318a.2.2,0,0,0,.2.231h1.032a.332.332,0,0,0,.328-.281l.62-3.923a.2.2,0,0,0-.2-.226Zm-1.6,2.231a1.277,1.277,0,0,1-1.293,1.094.888.888,0,0,1-.949-1.114,1.283,1.283,0,0,1,1.284-1.1.967.967,0,0,1,.764.312.987.987,0,0,1,.2.807Z" transform="translate(-64.971 -8.299)" fill="#179bd7"></path>
      <path d="M117.466,6.917l-.982,6.25a.2.2,0,0,0,.2.23h.988a.332.332,0,0,0,.329-.281l.969-6.137a.2.2,0,0,0-.2-.231h-1.106A.2.2,0,0,0,117.466,6.917Z" transform="translate(-75.717 -4.386)" fill="#179bd7"></path>
    </g>
  </g>
</svg>
